# xmcd
#
# Track frame offsets:
#	150
#	20382
#	38362
#	60047
#	81127
#	102485
#	120645
#	139587
#	155625
#	175792
#	193832
#	214935
#	236145
#	257495
#	275660
#	294542
#
# Disc length: 4141 seconds
#
# Revision: 2
# Processed by: cddbd v1.5.2PL0 Copyright (c) Steve Scherf et al.
# Submitted via: audiograbber 1.83.01
#
DISCID=dd102b10
DTITLE=Top Hits Monthly - THM9605
DYEAR=1996
DGENRE=Karaoke
TTITLE0=Hootie And The Blowfish - Old Man And Me
TTITLE1=Arena, Tina - Chains
TTITLE2=Oasis - Champagne Supernova
TTITLE3=Houston, Whitney Cece Williams - Count On Me
TTITLE4=Richie, Lionel - Don't Wanna Lose You
TTITLE5=Chapman, Tracy - Give Me One Reason
TTITLE6=Dog's Eye View - Everything Falls Apart
TTITLE7=La Bouche - Sweet Dreams
TTITLE8=Hootie And The Blowfish - Old Man And Me (Vocal)
TTITLE9=Arena, Tina - Chains (Vocal)
TTITLE10=Oasis - Champagne Supernova (Vocal)
TTITLE11=Houston, Whitney and Cece Williams - Count On Me (Vocal)
TTITLE12=Richie, Lionel - Don't Wanna Lose You (Vocal)
TTITLE13=Chapman, Tracy - Give Me One  (Vocal)
TTITLE14=Dog's Eye View - Everything Falls Apart (Vocal)
TTITLE15=La Bouche - Sweet Dreams (Vocal)
EXTD=
EXTT0=
EXTT1=
EXTT2=
EXTT3=
EXTT4=
EXTT5=
EXTT6=
EXTT7=
EXTT8=
EXTT9=
EXTT10=
EXTT11=
EXTT12=
EXTT13=
EXTT14=
EXTT15=
PLAYORDER=
